<?xml version="1.0" standalone="no"?>
<!DOCTYPE svg PUBLIC "-//W3C//DTD SVG 20010904//EN"
 "http://www.w3.org/TR/2001/REC-SVG-20010904/DTD/svg10.dtd">
<svg version="1.0" xmlns="http://www.w3.org/2000/svg"
 width="500.000000pt" height="500.000000pt" viewBox="0 0 500.000000 500.000000"
 preserveAspectRatio="xMidYMid meet">

<g transform="translate(0.000000,500.000000) scale(0.100000,-0.100000)"
fill="#000000" stroke="none">
<path d="M3096 3552 c-15 -18 -12 -21 61 -66 74 -46 80 -48 132 -42 88 10 95
21 31 50 -30 14 -62 26 -70 26 -9 0 -21 5 -27 11 -13 13 -83 30 -83 19 0 -4
-6 -10 -14 -13 -10 -4 -12 0 -9 14 7 24 1 24 -21 1z"/>
<path d="M2706 3553 c-3 -4 -21 -8 -39 -10 -43 -5 -46 -5 -89 -1 -21 3 -38 1
-38 -3 0 -3 -13 -9 -30 -12 -16 -4 -30 -13 -30 -20 0 -8 -6 -14 -14 -14 -8 0
-12 6 -9 14 4 9 0 11 -11 7 -9 -3 -14 -10 -11 -14 3 -4 -2 -10 -10 -14 -8 -3
-15 -1 -15 5 0 6 -7 3 -16 -5 -8 -9 -23 -16 -33 -16 -9 0 -23 -6 -30 -12 -7
-7 -12 -8 -11 -3 6 31 0 35 -29 20 -17 -8 -36 -12 -44 -9 -9 3 -22 -7 -35 -27
-19 -30 -20 -31 -27 -10 -5 17 -10 19 -26 11 -10 -6 -19 -7 -19 -2 0 4 -12 7
-27 7 -16 -1 -38 5 -50 12 -14 8 -23 9 -23 3 0 -5 -7 -10 -15 -10 -8 0 -15 5
-15 10 0 6 -5 10 -11 10 -5 0 -8 -4 -4 -9 3 -5 0 -13 -6 -17 -7 -4 -9 -3 -5 4
3 6 2 13 -3 16 -5 3 -11 -1 -15 -9 -3 -8 -12 -12 -21 -9 -8 3 -15 1 -15 -5 0
-19 -40 -13 -41 7 0 10 -3 12 -6 4 -2 -6 -8 -10 -12 -7 -5 2 -6 -7 -3 -20 2
-14 8 -22 13 -19 16 10 9 -17 -11 -43 -11 -14 -17 -29 -14 -34 3 -5 -2 -6 -10
-3 -9 3 -16 2 -16 -2 -2 -43 -15 -92 -27 -106 -9 -11 -14 -29 -11 -48 4 -29
-6 -42 -15 -17 -5 13 -18 -48 -15 -73 4 -44 -5 -57 -72 -103 -83 -57 -85 -65
-77 -241 6 -132 29 -223 71 -286 20 -30 39 -43 95 -64 l69 -27 51 49 c42 41
51 56 51 84 0 19 4 38 9 43 17 20 39 112 47 195 4 47 9 77 12 68 2 -10 7 -18
12 -18 8 0 12 -20 28 -140 17 -126 22 -284 12 -387 -5 -54 -11 -145 -14 -203
-4 -58 -9 -133 -12 -167 -4 -48 -1 -71 13 -100 18 -40 88 -115 137 -149 l28
-20 -17 -35 c-10 -19 -20 -50 -22 -69 -2 -19 -5 -48 -7 -65 -3 -29 17 -65 37
-65 5 0 4 7 -3 15 -15 18 0 20 20 3 8 -7 6 -2 -5 11 -11 14 -14 21 -6 16 11
-6 13 -4 8 8 -3 10 -2 17 3 17 6 0 6 9 0 25 -7 18 -5 28 5 39 11 11 12 16 2
19 -7 4 -6 6 4 6 9 1 22 -5 28 -13 10 -11 8 -16 -8 -21 -19 -6 -22 -20 -8 -42
5 -7 4 -13 -1 -13 -10 0 -7 -54 5 -72 4 -7 0 -9 -10 -5 -12 4 -14 2 -10 -10 6
-14 2 -13 -23 3 -16 12 -36 25 -44 29 -13 8 -13 6 -1 -8 29 -36 101 -55 101
-26 0 4 7 6 16 2 10 -3 12 -8 5 -12 -6 -4 -3 -11 9 -19 17 -11 19 -9 15 24 -3
31 0 35 19 32 11 -2 20 -9 18 -16 -1 -6 7 -12 18 -12 11 0 22 -6 25 -12 31
-97 52 -174 49 -180 -8 -12 -44 5 -42 20 2 8 -3 17 -11 20 -9 3 -11 0 -6 -8 5
-8 1 -11 -11 -9 -11 2 -25 0 -33 -5 -10 -7 -12 -6 -6 4 5 8 3 11 -6 8 -8 -3
-13 -11 -11 -18 2 -7 -3 -10 -12 -7 -10 4 -13 1 -9 -9 3 -7 0 -14 -6 -14 -6 0
-11 5 -11 10 0 7 -6 7 -19 1 -14 -8 -20 -7 -24 4 -4 10 -1 12 11 8 15 -6 15
-5 3 10 -11 14 -11 17 0 17 11 0 11 3 -1 11 -12 8 -12 12 -2 16 10 4 9 8 -5
18 -25 18 -37 -4 -16 -27 9 -10 11 -18 5 -18 -6 0 -9 -13 -7 -30 3 -22 -1 -33
-15 -40 -12 -6 -17 -16 -13 -26 5 -13 2 -15 -14 -10 -13 4 -25 0 -34 -11 -13
-17 -13 -17 6 -3 19 14 19 14 6 -3 -15 -19 -71 -52 -71 -42 0 4 -14 -3 -30
-15 -17 -12 -28 -25 -26 -29 3 -4 -3 -7 -13 -7 -13 0 -16 7 -13 29 5 34 -15
52 -37 34 -12 -10 -13 -9 -6 3 5 10 5 12 -3 5 -5 -5 -17 -30 -26 -55 -8 -26
-16 -36 -16 -25 -1 11 -4 14 -7 7 -2 -6 -9 -10 -14 -6 -5 3 -9 2 -8 -3 1 -4 1
-17 0 -28 -1 -17 -3 -18 -11 -5 -7 11 -10 11 -10 2 0 -7 -4 -11 -9 -7 -5 3
-12 1 -16 -5 -4 -6 -10 -8 -14 -5 -5 2 -6 -7 -3 -20 6 -33 20 -41 16 -10 -1
14 2 27 7 31 5 3 9 -1 9 -8 0 -9 3 -9 10 2 9 13 10 13 11 0 0 -8 6 -2 13 14
10 22 14 25 19 12 3 -8 2 -18 -3 -21 -6 -4 -10 -11 -10 -16 0 -6 6 -7 13 -2 6
4 16 8 22 8 5 0 9 11 10 25 0 14 4 31 8 38 5 7 4 12 -3 12 -8 0 -8 6 0 20 6
11 16 18 22 14 7 -4 6 -9 -3 -14 -10 -7 -10 -12 0 -23 7 -10 8 -17 2 -21 -5
-4 -9 -15 -8 -26 1 -16 8 -19 39 -17 21 1 38 6 38 11 0 4 9 -2 20 -15 15 -18
18 -20 14 -5 -9 23 14 38 38 25 12 -6 24 -5 37 3 15 9 23 9 34 0 11 -10 17 -9
26 1 6 8 7 17 3 22 -4 4 8 0 26 -9 17 -9 32 -14 32 -10 0 4 6 1 14 -5 11 -10
19 -7 37 11 17 18 21 19 16 5 -4 -11 -3 -16 3 -12 6 3 10 1 10 -5 0 -6 4 -8
10 -5 6 3 10 11 10 16 0 6 -5 7 -12 3 -7 -4 -2 7 11 24 12 18 26 30 31 27 4
-3 11 2 14 11 3 8 11 12 17 9 6 -4 8 -13 5 -21 -3 -7 2 -20 10 -29 9 -8 13
-15 9 -15 -3 0 5 -10 19 -23 18 -17 24 -30 20 -48 -5 -20 -4 -21 6 -9 10 13
11 12 6 -3 -3 -10 -6 -20 -6 -23 0 -2 -8 0 -17 3 -15 6 -16 5 -3 -9 18 -20 27
-19 57 7 19 15 21 22 11 30 -7 5 -13 16 -14 23 -2 28 -5 31 -21 25 -15 -6 -16
-4 -5 9 10 13 10 19 -2 31 -14 13 -13 17 11 32 32 21 193 65 237 65 41 0 56
-17 63 -70 5 -34 0 -49 -26 -91 -17 -28 -31 -53 -31 -57 -1 -11 -88 -52 -111
-52 -11 0 -34 14 -51 30 -33 33 -40 37 -32 16 3 -8 -4 -25 -17 -38 -18 -19
-21 -20 -15 -4 5 15 4 17 -7 8 -8 -7 -17 -9 -21 -5 -4 4 -4 0 0 -10 3 -9 10
-14 15 -11 12 7 11 -17 -1 -36 -8 -12 -12 -12 -18 -2 -7 10 -11 10 -22 -2 -7
-9 -17 -13 -23 -9 -5 3 -7 2 -4 -4 3 -5 -1 -22 -8 -37 -15 -27 -12 -51 5 -41
4 3 10 -4 13 -15 3 -13 -3 -26 -17 -38 -13 -9 -21 -23 -18 -30 2 -6 -1 -12 -6
-12 -17 0 -19 44 -3 56 9 7 11 16 5 25 -5 8 -9 21 -9 29 0 17 -26 21 -37 6 -3
-5 -2 -20 3 -33 5 -12 6 -24 4 -24 -3 -1 -8 -2 -12 -3 -5 -1 -14 -5 -22 -10
-11 -7 -13 -5 -8 8 5 11 3 15 -5 10 -8 -5 -9 -2 -5 10 4 11 3 15 -4 11 -6 -4
-8 -14 -5 -22 4 -9 1 -23 -6 -32 -12 -14 -11 -14 5 -2 9 7 17 10 17 6 0 -4 7
-2 15 5 12 10 15 10 15 -1 0 -11 2 -11 10 1 5 8 10 11 10 5 0 -5 -12 -23 -26
-40 -23 -27 -24 -28 -14 -5 11 24 11 24 -14 -3 -14 -15 -26 -23 -26 -17 0 6
-5 8 -12 4 -10 -6 -10 -5 -1 7 7 8 8 20 4 28 -6 9 -10 6 -14 -11 -5 -20 -43
-49 -68 -52 -3 -1 -13 -9 -23 -18 -19 -20 -31 -24 -21 -8 3 6 -1 7 -9 4 -9 -3
-14 -9 -12 -13 2 -3 -10 -5 -27 -4 -18 1 -32 2 -32 3 0 1 -8 3 -18 5 -9 2 -15
-1 -11 -6 3 -5 0 -9 -5 -9 -6 0 -11 6 -11 13 0 9 -3 8 -9 -2 -6 -9 -11 -10
-15 -2 -4 6 -11 9 -16 6 -5 -3 -18 -1 -29 4 -14 8 -21 8 -24 -2 -3 -6 -6 -7
-6 -2 -1 9 -81 9 -81 0 0 -2 9 -24 20 -49 10 -25 18 -46 17 -47 -14 -5 -64 -2
-60 3 2 5 -1 8 -7 8 -6 0 -8 5 -4 12 5 8 2 9 -10 5 -11 -4 -15 -3 -10 4 3 6
-2 28 -12 50 -22 49 -14 58 60 68 59 8 74 15 57 26 -6 3 -11 1 -11 -5 0 -6 -5
-8 -12 -4 -6 4 -38 6 -71 5 l-60 -3 8 64 c4 35 8 93 9 129 1 60 -1 67 -17 63
-14 -2 -17 1 -13 12 3 9 6 21 6 27 0 7 5 6 11 -3 9 -13 10 -13 6 0 -6 23 -39
18 -48 -8 -5 -14 -5 -21 1 -17 5 3 14 -14 21 -37 6 -24 16 -49 21 -55 7 -9 7
-13 -1 -13 -6 0 -11 6 -12 13 0 6 -5 3 -10 -8 -8 -16 -8 -15 -4 8 4 20 2 27
-6 21 -7 -4 -10 -2 -7 7 3 8 -6 24 -19 36 -23 22 -32 39 -13 28 6 -4 7 1 3 11
-5 14 -8 13 -20 -7 -13 -24 -13 -24 -8 6 3 17 2 24 -1 17 -3 -6 -10 -10 -14
-7 -5 3 -4 -8 2 -26 8 -23 13 -27 19 -17 7 10 9 10 9 0 0 -7 4 -11 9 -8 13 8
22 -22 15 -50 -3 -13 -2 -24 2 -24 5 0 9 -14 10 -31 1 -20 -2 -26 -7 -17 -7
10 -9 10 -9 -2 0 -13 -1 -13 -10 0 -5 8 -10 10 -10 3 0 -6 -9 -9 -20 -6 -16 4
-19 2 -13 -13 3 -11 11 -22 17 -26 7 -5 4 -8 -6 -8 -10 0 -18 7 -18 15 0 13
-4 12 -21 -4 -12 -11 -19 -27 -16 -38 4 -14 5 -12 7 7 1 18 6 11 15 -25 8 -27
12 -51 10 -53 -2 -3 -7 8 -11 23 -4 18 -9 23 -14 15 -5 -8 -14 1 -26 26 -14
30 -20 34 -22 20 -2 -10 2 -22 8 -26 7 -4 9 -13 5 -20 -5 -9 -4 -11 3 -6 7 4
12 1 12 -9 0 -9 4 -14 9 -11 5 4 7 -4 3 -16 -6 -24 -37 -58 -53 -58 -5 0 1 10
14 23 18 16 22 27 16 42 -5 13 -8 15 -9 5 0 -11 -6 -9 -19 8 -19 22 -38 31
-26 12 4 -6 1 -17 -5 -25 -10 -11 -10 -15 -1 -15 7 0 9 -5 5 -12 -5 -8 0 -9
14 -6 12 4 22 2 22 -3 0 -11 -31 -12 -46 -1 -15 10 -25 42 -14 42 22 0 -17 40
-40 41 -21 1 -21 2 -5 6 11 3 25 10 30 15 7 8 6 9 -2 4 -8 -4 -13 -1 -13 8 0
9 -5 16 -12 16 -6 0 -9 3 -5 6 3 3 1 18 -4 33 -8 21 -8 24 2 14 7 -7 20 -13
29 -12 10 0 11 2 2 6 -6 2 -10 9 -6 14 5 8 -10 13 -29 10 -5 -1 -6 3 -3 8 3 5
0 14 -7 19 -10 9 -13 4 -15 -20 -3 -42 -6 -43 -18 -3 -6 19 -8 33 -5 33 3 -1
14 2 23 6 13 6 15 11 5 21 -6 7 -19 10 -27 7 -9 -4 -7 4 8 22 25 32 20 49 -11
41 -12 -2 -16 -2 -9 1 6 3 9 11 6 16 -4 6 -2 8 3 5 6 -4 13 -1 16 7 6 16 -1
26 -17 26 -6 0 -4 -5 4 -10 13 -8 13 -10 -1 -10 -9 0 -22 -15 -30 -32 -7 -18
-20 -44 -30 -58 -21 -31 -80 -147 -83 -163 -1 -7 -18 -44 -38 -82 -20 -39 -38
-80 -40 -90 -1 -11 -6 -22 -10 -25 -3 -3 -15 -28 -26 -56 -13 -36 -16 -57 -10
-68 8 -14 5 -19 -11 -23 -11 -3 -18 -9 -15 -14 3 -5 10 -7 15 -4 5 4 9 2 9 -2
0 -5 14 -14 30 -20 27 -10 30 -9 30 10 0 11 3 18 6 14 4 -3 -1 -37 -9 -74 -9
-37 -18 -92 -21 -121 l-5 -52 162 2 162 3 3 25 c2 14 14 36 27 50 21 23 38 58
75 157 18 47 30 31 30 -40 0 -43 6 -75 20 -102 11 -22 20 -52 20 -67 0 -21 5
-28 19 -28 11 0 22 6 24 13 4 10 6 10 6 0 1 -7 13 -13 27 -13 23 0 25 3 20 25
-4 15 -2 25 4 25 6 0 8 -5 4 -12 -4 -7 -3 -8 4 -4 14 8 16 75 3 95 -13 20 -23
-3 -16 -36 4 -23 3 -22 -9 7 -21 51 -19 60 12 60 23 0 28 -4 28 -21 -1 -12 5
-24 12 -26 8 -3 12 8 12 36 0 34 3 41 19 41 11 0 22 -8 24 -17 3 -12 5 -9 6 8
1 30 30 47 43 27 6 -10 8 -10 8 -1 0 15 21 13 32 -2 5 -6 8 -6 8 2 0 6 9 9 20
6 11 -3 20 -9 20 -14 0 -5 -7 -6 -15 -3 -8 4 -15 2 -15 -4 0 -5 -13 -24 -28
-41 -23 -27 -33 -31 -55 -26 -15 4 -27 11 -27 17 0 5 -4 6 -10 3 -5 -3 -10
-13 -10 -21 0 -8 4 -12 10 -9 6 3 7 -1 4 -9 -3 -9 -1 -16 5 -16 6 0 11 5 11
10 0 6 7 10 17 10 14 0 15 -2 1 -17 -9 -10 -18 -25 -21 -33 -3 -9 -6 -10 -6
-2 -1 6 -6 12 -13 12 -6 0 -4 -7 5 -18 10 -10 17 -27 18 -38 0 -12 8 -3 20 24
11 23 25 42 32 42 7 0 6 4 -3 10 -11 7 -7 9 16 7 25 -1 30 -5 24 -17 -4 -8 -5
-21 -3 -28 3 -7 0 -19 -6 -26 -14 -17 -4 -26 31 -26 23 0 28 4 28 25 0 13 -8
28 -17 34 -29 16 -7 25 69 28 40 1 78 5 86 8 7 2 10 0 7 -5 -8 -13 8 -13 21 0
7 7 11 6 11 -5 0 -8 -4 -15 -9 -15 -5 0 -6 -5 -2 -11 5 -8 11 -5 18 8 11 19
56 26 71 11 4 -4 16 -3 26 3 15 8 17 6 12 -7 -4 -12 -3 -15 5 -10 7 4 12 2 12
-5 0 -7 7 -4 15 7 9 12 14 14 15 6 0 -7 5 -10 11 -7 6 5 4 12 -8 20 -10 7 -20
9 -23 4 -3 -4 -7 10 -7 32 -1 23 -7 47 -13 54 -9 10 -6 15 11 20 13 4 24 2 29
-5 5 -8 11 -7 23 4 19 20 31 21 24 2 -3 -8 1 -17 9 -20 23 -9 27 -7 20 9 -3 8
0 15 7 16 7 0 0 5 -15 11 -16 5 -28 13 -28 18 0 4 33 18 73 31 87 28 83 25 67
44 -11 13 -8 15 19 15 22 0 30 -4 25 -11 -5 -9 4 -10 31 -5 31 6 37 5 32 -8
-3 -8 -1 -17 6 -19 7 -3 -1 -4 -18 -4 -16 1 -33 7 -37 12 -5 6 -8 5 -8 -2 0
-7 -12 -13 -27 -14 l-28 -1 25 -7 c17 -5 21 -9 12 -15 -7 -4 -22 -4 -35 0 -12
3 -18 3 -14 -2 14 -14 68 -13 74 2 4 10 15 13 37 9 23 -5 37 -1 52 14 12 11
25 17 28 14 3 -4 6 0 6 8 0 12 2 11 11 -1 8 -11 9 -7 5 17 -3 18 -2 32 2 32
20 -3 32 2 32 15 0 7 11 38 24 67 23 50 35 60 17 14 -5 -11 -4 -25 2 -33 7 -9
6 -11 -6 -7 -10 4 -18 -1 -22 -16 -5 -15 -3 -25 4 -27 8 -3 6 -9 -6 -19 -10
-8 -12 -11 -4 -7 12 6 13 -1 7 -37 -18 -105 -22 -158 -12 -152 6 3 5 0 -1 -8
-15 -16 -17 -49 -3 -49 6 0 10 -4 10 -10 0 -5 -7 -7 -16 -3 -12 4 -14 0 -8
-23 4 -16 9 -32 11 -36 2 -5 139 -8 304 -8 l299 0 0 29 c0 17 5 33 10 36 6 4
10 -8 10 -29 l0 -36 130 0 130 0 0 78 c0 42 -5 120 -10 172 l-10 95 33 28 c45
39 57 80 41 142 -8 28 -16 68 -20 90 -3 22 -8 44 -11 49 -7 10 -20 66 -29 126
-3 19 -10 42 -16 50 -8 12 -9 12 -4 -2 4 -12 0 -18 -12 -18 -15 0 -15 -2 -2
-11 12 -8 11 -10 -5 -7 -15 3 -20 11 -20 38 -1 46 4 60 21 60 18 0 18 16 -2
73 -9 27 -22 47 -31 47 -8 0 -12 4 -9 9 3 5 -1 14 -9 21 -14 12 -19 7 -16 -13
1 -5 -3 -6 -9 -2 -6 4 -5 13 2 25 14 23 -2 47 -22 35 -9 -6 -9 -10 1 -16 10
-7 9 -8 -6 -6 -34 5 -47 17 -35 32 7 8 7 15 1 19 -5 4 -12 2 -16 -4 -4 -6 -11
-8 -16 -4 -6 3 -20 -2 -31 -13 -12 -10 -18 -13 -15 -6 4 6 3 14 -3 18 -6 4 -7
11 -4 17 4 7 2 8 -4 4 -6 -4 -9 -13 -6 -21 3 -7 1 -22 -5 -32 -9 -15 -10 -16
-11 -2 0 24 -23 40 -40 29 -9 -5 -19 -5 -27 2 -11 8 -12 7 -7 -8 4 -10 10 -23
14 -29 4 -5 6 -18 5 -27 -2 -9 3 -23 11 -29 12 -10 12 -14 3 -20 -16 -10 -52
9 -43 22 3 6 0 10 -7 8 -37 -5 -50 14 -24 33 6 5 3 8 -6 8 -11 0 -18 -11 -21
-30 -4 -25 -1 -30 16 -30 31 0 40 -10 59 -58 20 -51 21 -63 5 -57 -7 3 -18 -6
-24 -19 -9 -20 -9 -26 2 -30 8 -3 14 1 14 9 0 7 4 16 9 19 14 9 0 -37 -17 -56
-34 -40 -81 -12 -98 57 -4 17 -11 35 -16 42 -5 7 -5 14 2 18 16 10 -6 43 -43
65 -18 11 -28 20 -23 20 5 0 4 6 -2 13 -6 7 -9 26 -7 42 2 17 4 37 4 46 1 8 7
23 14 33 12 16 13 13 10 -20 l-2 -39 11 39 c10 35 13 38 39 32 31 -6 36 2 17
24 -7 8 -1 4 14 -9 16 -14 30 -23 31 -20 2 2 9 12 14 23 7 12 13 15 17 7 4 -6
2 -11 -4 -11 -6 0 -8 -4 -5 -10 8 -13 16 -12 38 4 19 15 14 46 -8 46 -7 0 -21
12 -31 28 -9 15 -40 50 -67 77 -36 36 -50 59 -52 83 -3 40 5 40 33 2 17 -22
29 -29 51 -27 28 2 34 27 6 27 -8 0 -10 9 -7 25 4 22 -2 27 -57 51 -42 18 -61
32 -61 45 0 11 -12 22 -35 29 -30 10 -55 34 -55 53 0 3 29 26 63 51 84 59 199
183 241 260 19 33 44 95 56 136 12 41 24 83 27 93 4 16 1 18 -17 12 -31 -10
-49 20 -50 78 0 54 17 101 54 150 55 72 60 103 60 347 0 219 0 227 -26 291
-25 64 -26 67 -7 82 27 24 35 66 18 96 -20 36 -132 73 -219 74 -77 0 -174 -36
-204 -77 -39 -52 -67 -526 -36 -610 5 -15 10 -9 21 30 l13 49 4 -42 3 -43 62
1 c34 1 50 4 35 6 -14 2 -32 10 -38 18 -6 7 -14 69 -17 137 -5 100 -3 131 10
158 8 19 18 45 22 58 15 53 152 83 190 42 22 -24 41 -26 49 -4 6 15 9 14 31
-6 30 -28 43 -83 55 -235 9 -109 8 -121 -8 -134 -12 -9 -14 -15 -4 -18 6 -3
12 -9 12 -14 0 -6 -3 -8 -7 -6 -5 3 -8 -8 -9 -23 -2 -48 -11 -58 -88 -96 -62
-30 -87 -37 -138 -37 -41 0 -75 6 -95 17 -18 9 -33 14 -33 11 0 -39 97 -106
163 -113 26 -2 47 -7 47 -11 0 -11 -41 -32 -91 -47 -62 -19 -80 -37 -73 -72
l6 -28 -120 -3 -119 -2 5 50 c4 43 1 54 -19 76 -13 13 -27 25 -31 25 -3 0 -28
-17 -55 -37 l-48 -38 -108 0 c-85 0 -111 3 -120 15 -7 8 -25 22 -41 30 -29 15
-28 15 55 21 159 10 231 49 268 144 13 35 25 51 40 53 24 4 36 40 48 147 12
108 8 190 -12 295 -3 14 -7 36 -10 49 -2 14 -9 29 -15 35 -5 5 -10 17 -10 25
0 27 -41 101 -68 122 -25 20 -35 21 -147 16 -129 -7 -269 -34 -334 -65 l-41
-20 0 58 c0 44 5 65 25 94 14 20 28 48 31 61 4 17 25 36 63 58 118 69 218 97
449 126 114 14 140 31 40 26 -45 -2 -78 0 -78 6 0 11 -14 12 -24 2z m372 -530
c-42 -48 -77 -173 -79 -281 -1 -38 -3 -49 -8 -33 -10 36 4 182 24 242 10 30
27 62 39 71 27 23 43 23 24 1z m-860 -105 c-20 -46 -32 -97 -38 -161 -8 -82
-8 -76 -5 68 2 88 6 167 10 177 6 15 9 15 34 0 l28 -15 -29 -69z m389 10 c42
-47 47 -69 51 -222 4 -137 3 -151 -14 -164 -17 -12 -15 -13 19 -7 38 7 38 7
32 -21 -23 -102 -54 -132 -158 -154 -129 -26 -242 29 -262 129 -6 29 -5 33 10
28 9 -4 38 -7 65 -7 46 0 49 -2 55 -31 8 -36 55 -69 99 -69 41 0 95 36 102 68
3 15 8 33 10 40 2 8 -1 12 -8 10 -6 -2 -12 -17 -13 -32 -1 -35 -37 -66 -77
-66 -30 0 -81 35 -86 58 -3 17 33 15 48 -3 17 -20 33 -19 54 4 17 19 15 19
-61 26 -102 8 -130 14 -141 28 -13 19 -44 260 -36 282 16 41 56 91 87 107 23
12 57 17 118 18 76 0 88 -2 106 -22z m-818 -76 c1 -7 -3 -10 -9 -7 -5 3 -10
18 -9 33 0 24 1 25 9 7 5 -11 9 -26 9 -33z m-92 12 c3 -8 0 -27 -7 -42 -11
-24 -13 -25 -22 -9 -11 21 -3 67 13 67 5 0 12 -7 16 -16z m92 -343 c8 -5 10
-14 6 -21 -6 -9 -4 -11 4 -5 9 5 12 0 9 -16 -2 -16 -9 -24 -20 -23 -10 1 -16
-2 -13 -6 10 -17 -12 -19 -33 -4 -51 35 -5 108 47 75z m510 -150 c36 -38 34
-52 -4 -27 -29 19 -59 76 -68 126 -6 32 -4 31 17 -15 13 -27 38 -65 55 -84z
m-29 -806 c0 -8 -7 -15 -15 -15 -9 0 -12 6 -9 15 4 8 10 15 15 15 5 0 9 -7 9
-15z m829 -95 c17 -24 19 -34 11 -48 -8 -13 -10 -13 -9 -2 3 21 -12 51 -21 45
-5 -3 -8 4 -7 15 1 11 2 20 2 20 1 0 11 -14 24 -30z m-44 0 c3 -5 1 -10 -4
-10 -6 0 -11 5 -11 10 0 6 2 10 4 10 3 0 8 -4 11 -10z m15 -30 c0 -6 -8 -10
-18 -10 -26 0 -33 -10 -21 -31 6 -13 6 -19 -1 -19 -5 0 -10 7 -10 16 0 11 -8
9 -35 -12 -43 -33 -46 -24 -4 15 17 17 29 34 26 38 -3 4 10 9 29 10 19 2 34
-2 34 -7z m-733 -36 c-3 -3 -12 -4 -19 -1 -8 3 -5 6 6 6 11 1 17 -2 13 -5z
m741 -41 c-16 -2 -40 -2 -55 0 -16 2 -3 4 27 4 30 0 43 -2 28 -4z m-3 -23
c-22 -4 -49 -11 -60 -15 -17 -8 -18 -7 -5 8 10 11 30 16 60 15 l45 -1 -40 -7z
m-8 -17 c-13 -3 -15 -8 -7 -17 8 -10 5 -12 -15 -8 -20 3 -23 7 -14 18 6 8 21
13 33 13 17 -1 18 -2 3 -6z m-34 -40 c-7 -2 -19 -2 -25 0 -7 3 -2 5 12 5 14 0
19 -2 13 -5z m212 -62 c3 -5 1 -12 -5 -16 -5 -3 -10 1 -10 9 0 18 6 21 15 7z
m-172 -82 c6 -10 7 -24 2 -35 -8 -17 -9 -15 -13 9 -2 20 -8 27 -18 23 -8 -3
-14 1 -14 10 0 20 29 15 43 -7z m268 -66 c7 -20 13 -23 21 -15 7 7 16 12 22
12 6 0 6 -4 0 -10 -6 -6 -9 -32 -8 -58 2 -35 1 -40 -4 -17 -6 25 -13 30 -37
31 -41 2 -41 2 -27 16 8 8 15 8 27 -2 14 -12 18 -10 13 8 -2 4 -6 6 -10 5 -5
-2 -8 6 -8 17 0 11 -5 20 -11 20 -5 0 -7 5 -4 10 10 15 15 12 26 -17z m-289 5
c2 -7 1 -26 -2 -43 l-7 -30 -10 25 c-10 25 -6 60 7 60 4 0 10 -6 12 -12z m355
-30 c-3 -8 -6 -5 -6 6 -1 11 2 17 5 13 3 -3 4 -12 1 -19z m-325 -40 c-9 -9 -2
-19 28 -46 22 -18 37 -38 34 -43 -3 -6 -1 -16 6 -24 8 -10 8 -13 -2 -11 -7 1
-19 5 -25 9 -7 5 -17 5 -23 2 -5 -3 -19 3 -31 14 -18 16 -20 26 -14 58 8 45
12 53 28 53 8 0 8 -3 -1 -12z m348 -13 c14 -19 14 -19 -2 -6 -10 7 -18 18 -18
24 0 6 1 8 3 6 1 -2 9 -13 17 -24z m-1100 -6 c0 -6 -4 -7 -10 -4 -5 3 -10 11
-10 16 0 6 5 7 10 4 6 -3 10 -11 10 -16z m616 -25 c-3 -9 -6 -20 -6 -25 0 -5
-4 -9 -9 -9 -4 0 -6 11 -3 25 2 14 9 25 14 25 6 0 7 -7 4 -16z m40 7 c15 13
17 9 8 -15 -3 -9 -13 -16 -21 -16 -8 0 -11 -4 -8 -10 3 -5 1 -10 -4 -10 -14 0
-14 17 -1 25 5 3 8 11 6 18 -1 7 -1 8 2 4 2 -4 10 -3 18 4z m9 -61 c-10 -11
-21 -18 -23 -15 -3 3 3 12 14 20 27 20 30 18 9 -5z m70 -20 c7 0 18 -7 25 -15
7 -8 16 -12 21 -9 5 3 9 -3 9 -13 1 -18 22 -53 33 -53 4 0 4 6 1 14 -3 8 0 17
6 21 6 3 10 3 9 -2 -4 -21 2 -33 16 -33 8 0 22 -11 31 -24 9 -15 21 -23 30
-19 9 3 14 0 12 -8 -2 -8 7 -14 25 -14 15 -1 27 3 27 7 0 4 -4 8 -10 8 -5 0
-10 5 -10 11 0 5 5 7 10 4 6 -3 10 0 11 7 0 10 2 10 6 1 2 -7 18 -13 34 -13
16 0 29 6 30 13 1 14 17 -22 18 -40 1 -7 -10 -13 -25 -13 -14 0 -23 -4 -20 -9
4 -5 0 -12 -6 -14 -8 -3 -5 -6 5 -6 16 -1 17 -3 3 -16 -17 -17 -66 -20 -66 -4
0 5 -4 8 -9 4 -5 -3 -17 5 -26 17 -12 18 -17 20 -24 9 -7 -11 -11 -10 -19 5
-5 11 -10 23 -10 29 -1 19 -22 16 -22 -2 0 -27 -10 -34 -31 -22 -22 12 -27 -9
-6 -30 10 -10 7 -11 -15 -7 -16 2 -28 0 -28 -5 0 -5 8 -9 18 -9 9 -1 2 -7 -17
-16 -19 -8 -36 -12 -39 -9 -3 3 -1 5 4 5 6 0 8 16 6 35 -3 27 2 44 22 69 34
45 33 61 -3 79 -28 14 -29 14 -18 -3 6 -10 15 -16 19 -14 12 8 9 -19 -5 -37
-7 -9 -19 -14 -27 -11 -12 4 -13 3 -2 -10 10 -12 10 -17 -1 -27 -8 -6 -16 -8
-19 -5 -3 3 -9 -7 -13 -23 -4 -19 -2 -31 9 -39 26 -19 18 -26 -9 -8 -20 13
-25 14 -26 3 -3 -28 3 -43 23 -59 19 -15 20 -19 7 -45 -8 -16 -21 -30 -29 -33
-12 -3 -13 -2 -1 6 21 15 5 42 -23 42 -23 0 -25 -2 -16 -25 9 -22 7 -25 -15
-25 -15 0 -25 6 -25 14 0 8 -8 13 -17 11 -10 -1 -26 4 -35 12 -15 13 -18 12
-33 -14 -16 -27 -14 -20 7 40 l11 29 17 -27 c10 -16 20 -23 24 -16 4 5 12 8
20 5 7 -3 13 1 13 9 0 8 -9 14 -21 13 -23 -1 -29 25 -8 32 7 2 11 0 10 -5 -3
-8 5 -13 22 -13 6 0 10 6 9 13 -1 6 5 28 13 47 8 19 18 48 22 64 6 24 4 28
-10 22 -14 -5 -15 -4 -4 9 7 8 16 12 21 9 5 -3 12 3 16 13 4 10 11 21 16 24 5
4 11 24 13 45 5 49 15 74 21 57 3 -7 10 -13 18 -13z m-105 -6 c0 -8 4 -13 9
-9 18 10 23 -17 7 -33 -11 -11 -16 -12 -16 -4 0 7 -4 11 -9 8 -10 -6 -25 24
-16 32 3 3 5 0 5 -6 0 -7 5 -12 10 -12 7 0 7 6 0 20 -7 14 -7 20 0 20 5 0 10
-7 10 -16z m534 -39 c7 -28 6 -29 -7 -10 -8 10 -12 25 -10 33 7 16 9 14 17
-23z m-348 -3 c-17 -16 -18 -16 -5 5 7 12 15 20 18 17 3 -2 -3 -12 -13 -22z
m-1399 -4 c-3 -8 -6 -5 -6 6 -1 11 2 17 5 13 3 -3 4 -12 1 -19z m1163 -28 c0
-5 -2 -10 -4 -10 -3 0 -8 5 -11 10 -3 6 -1 10 4 10 6 0 11 -4 11 -10z m-1143
-32 c-3 -8 -6 -5 -6 6 -1 11 2 17 5 13 3 -3 4 -12 1 -19z m-374 -8 c-3 -11
-10 -20 -15 -20 -5 0 -6 5 -3 10 3 6 0 10 -7 10 -9 0 -9 3 2 10 23 15 29 12
23 -10z m1560 -49 c15 -2 6 -31 -14 -41 -19 -10 -20 -10 -10 9 20 36 12 36
-13 1 -19 -27 -21 -38 -13 -50 6 -8 7 -12 2 -7 -4 4 -17 -1 -27 -10 -18 -16
-19 -16 -9 9 5 14 7 29 3 34 -4 4 -2 4 5 0 7 -4 17 2 22 13 15 28 13 44 -4 37
-8 -3 -15 -1 -15 4 0 6 15 8 33 6 17 -3 35 -5 40 -5z m477 -1 c0 -5 -5 -10
-11 -10 -5 0 -7 5 -4 10 3 6 8 10 11 10 2 0 4 -4 4 -10z m-1670 -61 c0 8 2 12
5 10 8 -9 -16 -80 -26 -74 -5 4 -9 1 -9 -4 0 -6 -6 -11 -14 -11 -8 0 -16 -6
-19 -12 -5 -14 0 13 9 52 4 20 3 22 -5 10 -9 -13 -11 -11 -11 7 0 15 5 20 18
19 11 -2 16 -11 15 -27 -1 -15 0 -17 3 -6 3 9 10 14 16 11 6 -4 8 2 3 17 -5
19 -4 21 4 9 9 -12 11 -13 11 -1z m1450 7 c0 -2 3 -11 6 -20 4 -11 1 -16 -10
-16 -9 0 -16 -5 -16 -11 0 -5 4 -7 10 -4 6 3 7 -1 4 -10 -6 -14 -8 -14 -19 2
-11 15 -11 19 1 26 12 7 13 12 3 23 -9 11 -8 14 5 14 9 0 16 -2 16 -4z m-1796
-27 c24 3 27 -1 10 -13 -10 -8 -21 -10 -22 -5 -2 5 -8 7 -13 3 -10 -6 -12 19
-2 29 4 4 10 2 13 -4 4 -6 10 -10 14 -10z m1741 -26 c-2 -27 -3 -54 -4 -60 -1
-7 -6 -13 -11 -13 -7 0 -7 6 -1 19 6 10 7 22 3 26 -7 6 -8 11 -11 37 0 6 -7 3
-15 -8 -12 -15 -17 -16 -27 -7 -10 10 -6 14 15 23 15 5 32 10 37 10 5 0 9 5 9
10 0 6 2 10 4 10 2 0 3 -21 1 -47z m-1478 -55 c-3 -8 -6 -5 -6 6 -1 11 2 17 5
13 3 -3 4 -12 1 -19z m923 8 c0 -18 -16 -29 -30 -21 -13 8 -1 35 16 35 8 0 14
-6 14 -14z m591 -49 c-9 -9 -10 -5 -7 13 6 36 8 37 13 16 3 -10 0 -23 -6 -29z
m-653 -12 c-3 -3 -9 2 -12 12 -6 14 -5 15 5 6 7 -7 10 -15 7 -18z m-242 -28
c9 -18 22 -35 28 -39 8 -6 7 -8 -1 -8 -7 0 -10 -7 -7 -15 4 -8 1 -15 -5 -15
-6 0 -13 12 -16 28 -4 15 -13 42 -21 60 -18 41 0 32 22 -11z m354 38 c0 -3
-12 -18 -26 -33 -15 -15 -23 -21 -20 -14 9 15 -6 16 -22 0 -16 -16 -16 -42 1
-31 18 11 38 13 31 2 -3 -5 -9 -7 -13 -4 -5 2 -15 -3 -23 -13 -22 -25 -31 -43
-21 -41 23 4 23 -3 0 -21 -22 -18 -49 -29 -35 -14 3 3 -1 26 -8 51 -18 58 -18
66 1 60 8 -4 17 -1 21 5 5 7 2 8 -6 3 -9 -5 -11 -4 -6 4 5 7 13 8 24 2 12 -7
25 -2 50 20 30 27 52 37 52 24z m-1010 -15 c0 -5 -2 -10 -4 -10 -3 0 -8 5 -11
10 -3 6 -1 10 4 10 6 0 11 -4 11 -10z m1560 -7 c0 -5 -5 -15 -10 -23 -8 -12
-10 -11 -10 8 0 12 5 22 10 22 6 0 10 -3 10 -7z m-1728 -28 c-4 -26 -22 -45
-22 -25 0 12 18 50 24 50 2 0 1 -11 -2 -25z m1174 9 c-3 -8 -2 -12 4 -9 16 10
24 -23 10 -40 -8 -10 -9 -15 -2 -15 7 0 9 -7 5 -17 -4 -11 -3 -14 5 -9 18 11
14 0 -5 -15 -14 -12 -16 -12 -8 0 6 11 4 13 -10 7 -15 -5 -16 -4 -5 9 15 18 0
20 -20 3 -8 -7 -6 -2 5 11 19 23 19 24 1 17 -16 -5 -17 -4 -7 8 7 8 10 20 6
26 -4 6 -1 17 5 25 16 19 24 19 16 -1z m289 0 c13 -5 14 -8 3 -15 -19 -13 -28
-11 -28 6 0 17 2 18 25 9z m-1418 -26 c-3 -8 -6 -5 -6 6 -1 11 2 17 5 13 3 -3
4 -12 1 -19z m1473 7 c-7 -8 -16 -12 -21 -9 -13 8 -1 24 18 24 13 0 13 -3 3
-15z m142 -20 c4 -16 2 -34 -3 -39 -5 -6 -9 -18 -9 -27 0 -9 -7 -23 -16 -30
-15 -12 -16 -11 -10 16 3 17 7 49 8 72 2 48 20 53 30 8z m-1415 5 c1 -11 -2
-22 -8 -25 -5 -4 -6 2 -2 11 5 13 3 15 -8 9 -12 -8 -12 -6 0 8 17 21 16 21 18
-3z m660 -18 c15 12 15 11 4 -11 -8 -14 -9 -21 -2 -17 14 9 7 -52 -8 -67 -6
-6 -11 -7 -11 -1 0 6 4 14 9 20 6 5 1 10 -15 10 -25 2 -32 -10 -13 -21 6 -4 8
-13 5 -20 -2 -7 4 -15 15 -18 10 -3 19 -12 19 -21 0 -8 -6 -14 -12 -12 -7 3
-25 7 -40 10 -27 6 -33 24 -13 38 6 5 5 12 -3 20 -15 15 -16 45 -1 54 6 3 16
0 21 -7 8 -11 9 -10 4 3 -3 10 -1 20 5 24 6 3 8 13 5 21 -3 8 -3 20 1 26 5 7
9 1 11 -16 3 -25 6 -27 19 -15z m700 -39 c-12 -66 -12 -67 -25 -59 -6 4 -6 23
0 53 13 65 17 75 26 69 5 -3 4 -31 -1 -63z m-645 35 c-14 -18 -8 -56 16 -106
l20 -42 -36 -10 c-36 -9 -55 -5 -37 8 11 8 17 114 6 108 -4 -3 -7 4 -7 14 0
10 3 18 6 18 19 -2 23 4 10 13 -13 9 -12 10 3 5 9 -3 17 0 17 6 0 6 3 8 6 5 4
-4 2 -12 -4 -19z m778 -20 c0 -12 -69 -77 -74 -69 -3 4 -1 13 5 21 5 8 9 25 9
37 0 12 7 29 16 38 15 14 17 14 30 -2 7 -10 14 -21 14 -25z m-723 10 c-3 -8
-6 -5 -6 6 -1 11 2 17 5 13 3 -3 4 -12 1 -19z m833 2 c0 -5 -2 -10 -4 -10 -3
0 -8 5 -11 10 -3 6 -1 10 4 10 6 0 11 -4 11 -10z m-720 -26 c0 -12 -2 -12 -14
-2 -8 7 -12 16 -9 21 7 11 23 -2 23 -19z m-314 -11 c-4 -4 -12 -1 -19 7 -9 10
-9 11 1 6 7 -4 12 -2 13 6 0 11 2 11 6 0 3 -7 2 -16 -1 -19z m1118 -8 c-4 -8
-11 -12 -17 -8 -8 5 -7 8 1 11 7 2 9 9 6 14 -4 7 -2 8 4 4 6 -4 9 -13 6 -21z
m-368 -7 c-3 -13 -6 -34 -6 -47 0 -18 -3 -22 -11 -14 -13 13 -2 83 13 83 6 0
8 -10 4 -22z m-994 -31 c4 -7 8 -15 8 -19 0 -10 -81 -7 -101 3 -15 8 -16 5 -4
-36 20 -63 -3 -65 -37 -2 -31 55 -33 68 -18 83 13 13 141 -12 152 -29z m228
-14 c0 -13 -4 -23 -9 -23 -10 0 -19 40 -13 59 6 19 22 -7 22 -36z m211 23 c5
3 9 0 9 -6 0 -7 -7 -9 -16 -6 -9 3 -18 6 -20 6 -3 0 -2 5 2 12 6 9 9 9 12 0 2
-7 8 -10 13 -6z m224 -25 c-16 -15 -48 -17 -52 -3 -3 8 6 12 28 12 20 0 29 -4
24 -9z m140 -1 c3 -5 1 -10 -4 -10 -6 0 -11 5 -11 10 0 6 2 10 4 10 3 0 8 -4
11 -10z m-708 -14 c-4 -10 0 -12 14 -9 10 3 19 1 19 -5 0 -5 -14 -12 -32 -16
-38 -7 -57 12 -31 32 22 16 36 15 30 -2z m972 3 c14 22 33 2 26 -27 -3 -14 -1
-37 5 -52 9 -22 8 -33 -10 -63 -22 -37 -24 -38 -119 -51 -23 -4 -23 -2 -17 48
3 28 6 61 6 73 0 30 79 90 92 71 6 -10 10 -10 17 1z m85 -23 c-9 -15 -19 -24
-22 -22 -2 3 3 17 12 32 10 14 20 23 23 21 2 -3 -3 -17 -13 -31z m-959 14 c3
-5 1 -10 -4 -10 -6 0 -11 5 -11 10 0 6 2 10 4 10 3 0 8 -4 11 -10z m-1050 -20
c3 -5 2 -10 -4 -10 -5 0 -13 5 -16 10 -3 6 -2 10 4 10 5 0 13 -4 16 -10z m880
1 c3 -5 2 -12 -3 -15 -5 -3 -9 1 -9 9 0 17 3 19 12 6z m735 -58 c-11 -17 -11
-17 -6 0 3 10 7 26 7 35 1 15 2 15 6 0 2 -10 -1 -25 -7 -35z m-745 -21 c0 -7
-13 -21 -30 -32 -16 -11 -24 -20 -16 -20 11 0 11 -3 1 -15 -13 -15 -42 -20
-53 -8 -10 9 43 54 55 47 7 -5 9 -2 5 8 -6 17 12 40 28 35 5 -2 10 -9 10 -15z
m89 -13 c-3 -5 0 -9 5 -9 17 0 13 -27 -5 -34 -26 -10 -34 -7 -34 12 0 14 2 15
10 2 5 -8 12 -11 16 -7 4 4 2 13 -4 19 -17 17 -15 38 3 32 8 -4 12 -10 9 -15z
m666 -6 c0 -7 -4 -13 -9 -13 -5 0 -11 6 -14 13 -3 8 1 14 9 14 8 0 14 -6 14
-14z m-14 -23 c15 0 18 -13 14 -80 -2 -60 -10 -65 -10 -7 0 25 -4 47 -8 49 -5
2 -12 17 -15 33 -3 17 -4 24 -1 18 3 -7 12 -13 20 -13z m-726 -29 c0 -5 -7
-12 -16 -15 -22 -9 -24 -8 -24 9 0 8 9 15 20 15 11 0 20 -4 20 -9z m240 -11
c0 -5 -2 -10 -4 -10 -3 0 -8 5 -11 10 -3 6 -1 10 4 10 6 0 11 -4 11 -10z
m-613 -22 c-3 -8 -6 -5 -6 6 -1 11 2 17 5 13 3 -3 4 -12 1 -19z m-270 6 c-3
-3 -12 -4 -19 -1 -8 3 -5 6 6 6 11 1 17 -2 13 -5z"/>
<path d="M3070 972 c0 -5 10 -13 22 -19 15 -6 18 -12 10 -17 -7 -4 -12 -2 -12
3 0 6 -5 11 -11 11 -16 0 -5 -25 12 -25 8 0 19 -4 25 -7 25 -16 8 25 -18 43
-15 11 -28 16 -28 11z"/>
<path d="M2419 338 c-1 -2 -3 -15 -5 -30 -2 -19 2 -28 12 -28 16 0 19 16 4 25
-5 3 -7 12 -3 20 4 12 -3 23 -8 13z"/>
<path d="M3055 241 c-9 -8 -5 -71 3 -71 5 0 20 18 35 40 l26 40 -30 -2 c-17
-1 -32 -4 -34 -7z"/>
<path d="M2950 3550 c8 -5 20 -10 25 -10 6 0 3 5 -5 10 -8 5 -19 10 -25 10 -5
0 -3 -5 5 -10z"/>
<path d="M3060 3545 c0 -8 2 -15 4 -15 2 0 6 7 10 15 3 8 1 15 -4 15 -6 0 -10
-7 -10 -15z"/>
<path d="M2330 3490 c0 -5 5 -10 11 -10 5 0 7 5 4 10 -3 6 -8 10 -11 10 -2 0
-4 -4 -4 -10z"/>
<path d="M1900 3472 c0 -5 7 -9 15 -9 8 0 12 4 9 9 -3 4 -9 8 -15 8 -5 0 -9
-4 -9 -8z"/>
<path d="M1817 3369 c4 -13 9 -17 15 -11 11 11 3 32 -12 32 -4 0 -6 -9 -3 -21z"/>
<path d="M1800 3350 c0 -8 5 -22 10 -30 9 -13 10 -13 10 0 0 8 -5 22 -10 30
-9 13 -10 13 -10 0z"/>
<path d="M1790 3270 c-7 -18 -5 -49 3 -41 5 5 7 17 4 27 -3 11 -6 17 -7 14z"/>
<path d="M3455 3055 c3 -27 9 -94 12 -148 8 -129 23 -104 23 39 0 99 -2 115
-21 135 l-20 24 6 -50z"/>
<path d="M3242 2596 c-39 -11 -41 -13 -29 -30 11 -15 17 -17 35 -7 12 6 22 16
22 21 0 6 7 10 15 10 21 0 14 -21 -17 -52 -45 -45 -128 -28 -115 23 3 12 0 19
-10 19 -10 0 -13 -6 -8 -22 10 -34 52 -68 85 -68 38 0 87 44 99 88 9 29 8 32
-12 31 -12 -1 -41 -7 -65 -13z"/>
<path d="M2082 1439 c-41 -21 -41 -21 -25 -46 l16 -24 23 28 c13 15 23 32 24
36 0 5 5 5 10 2 6 -3 10 -2 10 4 0 20 -18 20 -58 0z m18 -14 c-7 -8 -17 -15
-23 -15 -6 0 -2 7 9 15 25 19 30 19 14 0z"/>
<path d="M1990 1390 c-9 -6 -10 -10 -3 -10 6 0 15 5 18 10 8 12 4 12 -15 0z"/>
<path d="M1995 1372 c-11 -4 -20 -13 -20 -20 0 -8 -18 -20 -40 -27 -50 -18
-54 -14 -10 10 19 10 35 22 35 27 0 9 -8 5 -65 -32 -16 -11 -47 -29 -68 -40
-21 -11 -35 -25 -32 -30 4 -6 -2 -10 -13 -10 -10 0 -27 -8 -38 -17 -10 -10
-31 -24 -46 -32 -15 -8 -37 -24 -49 -37 l-21 -23 21 6 c11 3 21 13 22 22 0 12
2 12 6 2 3 -7 8 -9 12 -4 3 5 22 19 41 32 27 18 30 18 12 3 -15 -14 -18 -22
-10 -26 9 -3 8 -8 -4 -16 -10 -6 -18 -19 -17 -28 0 -15 1 -15 8 1 4 10 10 18
14 18 36 -5 72 25 66 55 -5 29 3 40 29 38 15 -1 35 -3 45 -3 14 -1 16 -5 7
-21 -15 -28 -50 -46 -50 -25 0 8 7 15 15 15 16 0 20 16 6 24 -5 3 -16 -5 -25
-19 -9 -14 -14 -25 -10 -25 4 0 0 -8 -7 -17 -12 -15 -12 -16 1 -8 8 5 20 10
25 11 6 1 19 6 30 10 17 7 18 5 8 -8 -15 -18 -5 -32 13 -17 10 8 17 3 29 -20
8 -17 20 -31 26 -31 5 0 9 -6 7 -14 -2 -8 1 -14 7 -13 5 1 11 11 13 21 1 11
11 28 21 37 10 9 21 37 25 61 8 51 33 128 48 145 5 7 7 17 3 23 -9 15 -28 13
-19 -2 6 -10 4 -10 -7 0 -14 13 -15 13 -44 4z m5 -43 c-7 -11 -14 -18 -17 -15
-3 3 0 12 7 21 18 21 23 19 10 -6z m-105 -39 c-3 -5 -12 -10 -18 -10 -7 0 -6
4 3 10 19 12 23 12 15 0z m64 -26 c1 11 4 17 7 13 3 -3 3 -15 -1 -28 -5 -16
-9 -18 -15 -8 -7 10 -12 10 -23 1 -11 -10 -17 -9 -27 3 -8 9 -9 15 -4 14 26
-5 44 3 45 19 1 11 4 9 9 -8 6 -19 8 -21 9 -6z m-132 2 c0 -8 -6 -12 -15 -9
-11 5 -11 7 0 14 7 5 13 9 14 9 0 0 1 -6 1 -14z m98 -67 c-4 -5 -3 -14 1 -20
4 -8 9 -7 15 2 6 9 8 0 8 -26 -1 -30 -3 -34 -7 -17 -4 13 -11 22 -17 20 -5 -2
-11 12 -13 31 -2 22 0 31 7 26 6 -3 9 -11 6 -16z m35 11 c0 -5 -5 -10 -11 -10
-5 0 -7 5 -4 10 3 6 8 10 11 10 2 0 4 -4 4 -10z"/>
<path d="M3146 1367 c3 -10 9 -15 12 -12 3 3 0 11 -7 18 -10 9 -11 8 -5 -6z"/>
<path d="M2164 1353 c2 -10 12 -18 22 -19 35 -2 39 -4 24 -14 -8 -5 -10 -10
-5 -10 6 -1 25 -3 43 -5 18 -1 32 -1 30 0 -6 6 -109 65 -113 65 -2 0 -2 -8 -1
-17z"/>
<path d="M3215 1350 c-3 -6 1 -7 9 -4 18 7 21 14 7 14 -6 0 -13 -4 -16 -10z"/>
<path d="M2083 1335 c0 -7 6 -11 14 -8 7 3 13 6 13 8 0 2 -6 5 -13 8 -8 3 -14
-1 -14 -8z"/>
<path d="M3248 1343 c-24 -6 -23 -23 2 -23 11 0 20 7 20 15 0 8 -1 14 -2 14
-2 -1 -11 -3 -20 -6z"/>
<path d="M2076 1296 c6 -15 4 -17 -7 -11 -11 6 -11 5 -2 -5 7 -7 9 -21 4 -34
-4 -11 -7 -30 -7 -41 1 -11 -2 -22 -6 -25 -4 -3 3 -12 15 -19 21 -13 21 -13 7
4 -14 17 -13 18 4 12 16 -6 17 -5 7 7 -9 11 -9 20 -2 35 8 14 8 21 -2 24 -8 4
-9 8 -2 14 14 11 13 29 -3 45 -11 11 -12 10 -6 -6z"/>
<path d="M2240 1290 c0 -5 5 -10 11 -10 5 0 7 5 4 10 -3 6 -8 10 -11 10 -2 0
-4 -4 -4 -10z"/>
<path d="M3270 1290 c0 -6 10 -15 23 -20 12 -5 16 -9 8 -9 -19 -1 14 -38 40
-46 11 -4 17 -11 13 -16 -3 -5 0 -8 8 -7 7 2 12 -3 10 -10 -1 -8 2 -11 8 -7 5
3 10 1 10 -4 0 -22 20 -10 21 12 1 17 2 18 6 4 3 -10 10 -14 16 -10 7 3 3 -4
-8 -17 -11 -13 -14 -20 -7 -16 11 7 17 -5 13 -27 -1 -5 3 -6 9 -2 6 3 7 12 3
18 -3 7 3 3 15 -7 15 -13 19 -23 12 -31 -16 -19 2 -26 22 -9 13 13 15 20 7 30
-6 8 -15 11 -20 8 -5 -3 -6 2 -3 10 8 20 -56 80 -70 66 -16 -16 -24 -12 -19
13 3 15 -4 30 -23 47 -15 14 -24 18 -19 10 5 -8 -3 -5 -17 8 -25 23 -58 30
-58 12z m110 -80 c0 -15 -5 -12 -26 11 -19 22 -19 22 4 10 12 -6 22 -16 22
-21z"/>
<path d="M2200 1286 c0 -2 7 -7 16 -10 8 -3 12 -2 9 4 -6 10 -25 14 -25 6z"/>
<path d="M2245 1260 c3 -5 8 -10 11 -10 2 0 4 5 4 10 0 6 -5 10 -11 10 -5 0
-7 -4 -4 -10z"/>
<path d="M1682 1115 c-17 -37 -14 -45 4 -12 9 16 14 31 11 33 -2 2 -9 -7 -15
-21z"/>
<path d="M1760 1129 c0 -5 5 -7 10 -4 6 3 10 8 10 11 0 2 -4 4 -10 4 -5 0 -10
-5 -10 -11z"/>
<path d="M3216 1093 c-11 -11 -6 -23 9 -23 8 0 15 4 15 9 0 13 -16 22 -24 14z"/>
<path d="M1597 1073 c-3 -3 -3 -12 1 -21 5 -14 3 -15 -10 -5 -14 12 -28 8 -28
-8 0 -5 7 -6 16 -2 12 4 15 2 12 -8 -2 -8 -15 -16 -29 -17 -33 -5 -40 -14 -23
-30 12 -11 14 -10 14 3 0 8 4 15 9 15 13 0 3 -53 -11 -61 -6 -4 -8 -18 -4 -33
4 -15 11 -24 15 -21 5 3 11 0 13 -7 3 -7 7 -5 11 6 4 9 3 15 -2 12 -5 -3 -14
0 -20 8 -8 10 -6 17 8 30 11 10 24 15 30 12 6 -4 7 4 2 21 -9 32 -4 55 15 66
8 4 14 14 14 21 0 15 -24 28 -33 19z"/>
<path d="M1746 1003 c-6 -14 -5 -15 5 -6 7 7 10 15 7 18 -3 3 -9 -2 -12 -12z"/>
<path d="M1608 998 c-9 -5 -6 -8 9 -8 12 0 24 4 27 8 7 11 -19 11 -36 0z"/>
<path d="M1460 986 c0 -8 -3 -21 -6 -30 -4 -10 -1 -16 8 -16 8 0 14 12 14 30
1 17 -2 30 -7 30 -5 0 -9 -6 -9 -14z"/>
<path d="M1430 969 c0 -5 5 -7 10 -4 6 3 10 8 10 11 0 2 -4 4 -10 4 -5 0 -10
-5 -10 -11z"/>
<path d="M1510 965 c0 -8 -5 -15 -10 -15 -6 0 -3 -15 6 -32 16 -32 16 -32 -1
-18 -17 14 -17 13 -10 -9 6 -21 5 -22 -8 -10 -8 8 -12 19 -9 24 3 6 1 6 -4 2
-4 -4 -9 -18 -9 -30 0 -12 -5 -21 -11 -20 -8 2 -10 -6 -6 -20 3 -12 7 -16 10
-9 2 6 8 12 13 12 6 0 7 -4 4 -10 -3 -5 -1 -10 6 -10 6 0 9 8 6 19 -3 14 -1
18 9 14 8 -3 14 0 14 7 0 9 4 10 13 2 10 -9 13 -6 12 13 0 13 -3 27 -8 31 -4
4 0 18 9 32 9 13 11 21 5 18 -6 -4 -11 0 -11 8 0 9 -4 16 -10 16 -5 0 -10 -7
-10 -15z"/>
<path d="M1696 943 c-6 -14 -5 -15 5 -6 7 7 10 15 7 18 -3 3 -9 -2 -12 -12z"/>
<path d="M1759 953 c0 -5 -2 -17 -3 -28 -1 -11 6 -28 16 -37 21 -21 23 -13 4
21 -8 14 -12 31 -9 38 3 7 2 13 -1 13 -3 0 -6 -3 -7 -7z"/>
<path d="M2406 944 c-3 -9 -10 -13 -14 -10 -5 3 -7 -6 -4 -19 5 -27 16 -32 28
-14 5 8 10 6 16 -5 5 -9 19 -16 31 -16 21 0 21 1 -3 13 -16 9 -24 21 -23 34 3
25 -23 38 -31 17z"/>
<path d="M1577 926 c-3 -8 5 -12 23 -12 32 0 32 11 1 19 -11 2 -22 -1 -24 -7z"/>
<path d="M1645 929 c-4 -6 -5 -12 -2 -15 2 -3 7 2 10 11 7 17 1 20 -8 4z"/>
<path d="M1442 914 c-7 -8 -8 -14 -3 -14 10 0 25 19 20 25 -2 1 -10 -3 -17
-11z"/>
<path d="M1806 894 c-4 -9 -4 -19 -1 -22 2 -3 7 3 11 12 4 9 4 19 1 22 -2 3
-7 -3 -11 -12z"/>
<path d="M1865 889 c-4 -6 -5 -12 -2 -15 2 -3 7 2 10 11 7 17 1 20 -8 4z"/>
<path d="M2056 882 c-3 -5 1 -9 9 -9 8 0 12 4 9 9 -3 4 -7 8 -9 8 -2 0 -6 -4
-9 -8z"/>
<path d="M3586 872 c-9 -15 9 -31 24 -22 11 7 12 10 2 10 -7 0 -10 5 -7 10 3
6 2 10 -4 10 -5 0 -12 -4 -15 -8z"/>
<path d="M2447 849 c-4 -15 -11 -20 -22 -16 -9 4 -24 -2 -37 -15 -19 -19 -21
-20 -14 -2 5 13 4 16 -3 9 -14 -14 -2 -57 13 -48 6 4 5 -1 -3 -10 -9 -12 -10
-17 -2 -17 7 0 11 -6 10 -12 -3 -26 1 -39 11 -33 6 4 8 15 5 25 -3 10 -1 21 5
25 5 3 10 14 10 23 0 21 47 45 54 28 3 -8 5 -8 5 0 1 7 -5 24 -13 38 -13 26
-14 26 -19 5z"/>
<path d="M3200 855 c0 -8 2 -15 4 -15 2 0 6 7 10 15 3 8 1 15 -4 15 -6 0 -10
-7 -10 -15z"/>
<path d="M1550 850 c0 -5 5 -10 11 -10 5 0 7 5 4 10 -3 6 -8 10 -11 10 -2 0
-4 -4 -4 -10z"/>
<path d="M2059 856 c-5 -4 -5 -113 -1 -121 11 -18 9 -45 -2 -37 -22 16 -41 7
-39 -18 1 -14 -1 -19 -4 -12 -4 10 -9 10 -24 -4 -12 -11 -28 -15 -47 -11 -17
3 -35 1 -42 -6 -10 -9 -11 -9 -6 1 9 15 -6 16 -22 0 -16 -16 -15 -31 0 -22 11
7 108 8 140 2 26 -6 40 -36 28 -60 -10 -21 -10 -21 9 2 12 15 16 27 9 31 -7 4
-7 9 1 13 6 4 11 4 11 0 0 -4 10 1 22 12 l21 19 -19 -30 c-10 -16 -13 -26 -6
-22 7 5 12 3 12 -7 0 -8 -10 -17 -22 -20 -13 -2 -3 -3 22 -1 25 2 45 4 45 4 5
7 -2 41 -7 41 -17 0 -23 -6 -20 -20 2 -13 1 -13 -7 -1 -6 9 -5 21 2 33 7 10
13 14 15 8 2 -6 8 -8 13 -4 5 3 9 0 9 -6 0 -6 5 -8 13 -4 7 5 6 0 -3 -11 -14
-16 -13 -17 5 -12 11 3 37 8 57 11 27 5 45 17 69 47 17 22 34 37 37 35 3 -3
-2 -14 -11 -24 -10 -10 -17 -22 -17 -27 0 -4 9 4 20 18 11 14 20 29 19 34 -5
29 3 35 16 13 14 -25 14 -25 11 10 -2 19 -4 39 -5 44 0 5 -4 6 -8 3 -3 -4 -13
-1 -21 6 -9 6 -13 7 -9 1 3 -6 0 -11 -8 -11 -8 0 -15 3 -15 6 1 12 27 41 32
35 3 -2 8 1 11 9 3 8 -1 14 -9 14 -8 0 -14 -5 -14 -10 0 -6 -3 -7 -7 -4 -3 4
-13 1 -21 -6 -13 -10 -15 -9 -8 8 5 15 4 17 -5 8 -17 -17 -1 -37 17 -22 8 7
14 7 14 1 0 -22 -25 -29 -42 -11 -9 9 -14 20 -11 22 2 3 -4 4 -14 4 -21 -2
-47 -33 -38 -46 3 -5 1 -12 -5 -16 -5 -3 -10 -1 -10 6 0 6 -9 1 -21 -12 l-20
-24 5 25 c3 14 3 19 0 12 -3 -6 -10 -10 -15 -6 -5 3 -23 -5 -41 -17 -17 -13
-28 -18 -25 -12 4 7 3 14 -3 18 -19 12 -11 26 10 15 16 -9 19 -8 13 6 -4 12
-3 15 6 10 7 -5 21 0 33 11 11 10 22 17 24 16 2 -2 4 -1 4 2 0 3 0 11 0 18 0
6 -11 0 -24 -15 -26 -32 -38 -36 -29 -11 4 10 2 14 -5 9 -16 -10 -36 32 -23
48 8 9 7 13 -4 13 -8 0 -15 -1 -16 -1z m26 -86 c-10 -16 -22 -3 -22 25 0 25 0
25 14 5 8 -11 11 -25 8 -30z m147 -23 c-7 -8 -7 -18 -2 -27 6 -8 10 -10 10 -5
1 6 7 -2 15 -16 12 -21 12 -31 2 -52 -12 -26 -43 -42 -52 -27 -3 4 4 19 16 31
11 13 18 18 14 12 -3 -7 -2 -13 3 -13 6 0 12 7 16 15 3 8 1 15 -5 15 -6 0 -7
6 -3 13 6 9 5 9 -8 -1 -22 -18 -70 -12 -63 8 5 11 3 12 -5 4 -9 -9 -9 -17 -1
-32 15 -28 -5 -40 -27 -18 -13 12 -13 19 -4 28 14 14 16 32 2 23 -5 -3 -10 -1
-10 5 0 6 -4 8 -10 5 -16 -10 -11 1 7 16 9 8 14 9 10 3 -10 -18 20 -25 37 -9
7 8 17 11 20 8 4 -4 14 3 22 16 9 12 18 20 21 17 3 -3 1 -11 -5 -19z m48 -6
c5 -11 6 -22 2 -25 -14 -8 -46 20 -38 32 11 17 24 15 36 -7z m-170 -61 c0 -5
-7 -7 -15 -4 -8 4 -12 10 -9 15 6 11 24 2 24 -11z m86 -38 c-18 -16 -18 -16
-6 6 6 13 14 21 18 18 3 -4 -2 -14 -12 -24z"/>
<path d="M2385 849 c-11 -17 1 -21 15 -4 8 9 8 15 2 15 -6 0 -14 -5 -17 -11z"/>
<path d="M2200 815 c-7 -9 -8 -15 -2 -15 5 0 12 7 16 15 3 8 4 15 2 15 -2 0
-9 -7 -16 -15z"/>
<path d="M2476 773 c-6 -14 -5 -15 5 -6 7 7 10 15 7 18 -3 3 -9 -2 -12 -12z"/>
<path d="M2029 778 c-6 -14 -6 -59 0 -63 5 -2 8 11 7 30 -1 31 -3 41 -7 33z"/>
<path d="M2413 720 c0 -24 3 -27 14 -19 11 9 11 15 1 28 -7 9 -13 17 -14 19 0
1 -1 -11 -1 -28z"/>
<path d="M1632 688 c-16 -43 -6 -50 12 -8 9 21 15 28 19 19 4 -10 6 -9 6 4 2
29 -24 19 -37 -15z"/>
<path d="M1530 690 c0 -5 5 -10 11 -10 5 0 7 5 4 10 -3 6 -8 10 -11 10 -2 0
-4 -4 -4 -10z"/>
<path d="M1551 644 c0 -11 3 -14 6 -6 3 7 2 16 -1 19 -3 4 -6 -2 -5 -13z"/>
<path d="M1518 643 c7 -3 16 -2 19 1 4 3 -2 6 -13 5 -11 0 -14 -3 -6 -6z"/>
<path d="M1810 629 c0 -5 -4 -8 -9 -4 -5 3 -12 2 -15 -3 -2 -4 4 -8 14 -9 10
-1 21 5 24 13 3 8 1 14 -4 14 -6 0 -10 -5 -10 -11z"/>
<path d="M1540 605 c0 -5 5 -17 10 -25 5 -8 10 -10 10 -5 0 6 -5 17 -10 25 -5
8 -10 11 -10 5z"/>
<path d="M2019 608 c-3 -11 -5 -48 -3 -48 11 0 23 40 14 45 -5 3 -10 5 -11 3z"/>
<path d="M1930 576 c0 -2 9 -13 20 -26 19 -22 20 -22 20 -3 0 12 -8 23 -20 26
-11 3 -20 4 -20 3z"/>
<path d="M2745 251 c-3 -5 -1 -12 5 -16 5 -3 10 1 10 9 0 18 -6 21 -15 7z"/>
<path d="M2697 223 c-4 -3 -7 -15 -7 -25 0 -17 2 -18 15 -4 8 8 15 19 15 25 0
12 -13 15 -23 4z"/>
<path d="M2455 170 c-4 -6 3 -10 14 -10 25 0 27 6 6 13 -8 4 -17 2 -20 -3z"/>
<path d="M2335 141 c-3 -5 -1 -12 5 -16 5 -3 10 1 10 9 0 18 -6 21 -15 7z"/>
<path d="M2373 143 c-18 -7 -16 -23 2 -23 8 0 15 7 15 15 0 8 -1 15 -2 14 -2
0 -9 -3 -15 -6z"/>
<path d="M2686 114 c-10 -25 -7 -72 5 -79 17 -11 24 4 11 25 -14 24 -16 54 -2
45 6 -3 7 1 4 9 -8 20 -10 20 -18 0z"/>
<path d="M2051 48 c1 -24 3 -27 6 -10 2 12 9 22 14 22 6 0 7 5 4 10 -13 21
-25 9 -24 -22z"/>
<path d="M2021 54 c0 -11 3 -14 6 -6 3 7 2 16 -1 19 -3 4 -6 -2 -5 -13z"/>
<path d="M2218 53 c-18 -9 -34 -10 -51 -4 -19 7 -27 5 -40 -10 -29 -33 -20
-39 57 -39 54 0 79 4 90 15 8 9 19 15 23 15 4 -1 9 3 11 9 4 11 -10 15 -37 11
-8 -1 -17 2 -20 7 -3 5 -18 3 -33 -4z m-31 -39 c-3 -3 -12 -4 -19 -1 -8 3 -5
6 6 6 11 1 17 -2 13 -5z"/>
<path d="M2568 53 c7 -3 16 -2 19 1 4 3 -2 6 -13 5 -11 0 -14 -3 -6 -6z"/>
<path d="M2070 15 c-10 -13 -9 -15 8 -15 15 0 20 5 16 15 -4 8 -7 15 -9 15 -1
0 -8 -7 -15 -15z"/>
</g>
</svg>
